<?xml version="1.0" encoding="utf-8"?>
<svg xmlns="http://www.w3.org/2000/svg" viewBox="0 0 1000 300"><style type="text/css">
	.st0{fill:#EC1C24;}
	.st1{fill:#000000;}
</style><path class="st0" d="M868.7 170.5l-19.5-59h-15.9l-19.5 58.9 -19.5-58.9h-14.7l27.2 82.3c1 3 3.8 5.1 7 5.1 3.2 0 6-2 7-5l20.4-61.9 20.4 61.9c1 3 3.8 5.1 7 5.1 0 0 0 0 0 0 3.2 0 6-2 7-5l27.2-82.4h-14.7L868.7 170.5zM807.6 189.5C807.7 189.5 807.7 189.5 807.6 189.5 807.7 189.5 807.7 189.5 807.6 189.5zM820.2 189.5L820.2 189.5 820.2 189.5zM875 189.5L875 189.5 875 189.5z"/><path class="st0" d="M776.3 158.5c0.1-1.1 0.1-2.2 0.1-3.3 0-10.5-3.7-20.8-10.6-28.8 -8.5-10-20.9-15.8-34-15.8 -24.6 0-44.6 20-44.6 44.6 0 24.6 20 44.6 44.6 44.6 13.1 0 25.5-5.8 34-15.8 2.2-2.6 4.1-5.4 5.6-8.4 0.6-1.2 1.2-2.5 1.7-3.7H756c-0.5 0.8-1.1 1.5-1.7 2.2 -5.6 6.6-13.8 10.4-22.4 10.4 -15.1 0-27.5-11.4-29.2-26.1H776.3zM731.9 125.9c8.6 0 16.8 3.8 22.4 10.4 1.8 2.1 3.3 4.5 4.4 7h-53.6C709.7 133 719.9 125.9 731.9 125.9z"/><path class="st0" d="M652 199.4h-15.2v-58.9c0-15.9 13-28.9 28.9-28.9h19v15.2h-19c-7.5 0-13.7 6.1-13.7 13.7V199.4z"/><path class="st0" d="M591.8 199.8c-24.6 0-44.6-20-44.6-44.6 0-24.6 20-44.6 44.6-44.6 13.1 0 25.5 5.8 34 15.8l-11.6 9.9c-5.6-6.6-13.8-10.4-22.4-10.4 -16.2 0-29.3 13.2-29.3 29.3 0 16.2 13.2 29.3 29.3 29.3 8.6 0 16.8-3.8 22.4-10.4l11.6 9.9C617.4 194.1 605 199.8 591.8 199.8z"/><path class="st1" d="M536 199.8h-51.2c-5.2 0-9.9-2.8-12-7.2 -1.9-4-1.3-8.5 1.6-12l45.2-53.8h-45.6v-15.2h51.7c5.2 0 9.9 2.8 12 7.2 1.9 4 1.3 8.5-1.6 12l-45.2 53.8H536V199.8z"/><path class="st1" d="M463.4 126.8v-15.2H442V86.7h-15.2v24.9H413v15.2h13.7v47c0 14.3 11.8 26 26.4 26h10.3v-15.2h-10.3c-6.2 0-11.2-4.8-11.2-10.7v-47H463.4z"/><path class="st1" d="M369.9 199.4h-15.2v-58.9c0-15.9 13-28.9 28.9-28.9h19v15.2h-19c-7.5 0-13.7 6.1-13.7 13.7V199.4z"/><path class="st1" d="M343.9 158.5c0.1-1.1 0.1-2.2 0.1-3.3 0-10.5-3.7-20.8-10.6-28.8 -8.5-10-20.9-15.8-34-15.8 -24.6 0-44.6 20-44.6 44.6 0 24.6 20 44.6 44.6 44.6 13.1 0 25.5-5.8 34-15.8 2.2-2.6 4.1-5.4 5.6-8.4 0.6-1.2 1.2-2.5 1.7-3.7h-17.2c-0.5 0.8-1.1 1.5-1.7 2.2 -5.6 6.6-13.8 10.4-22.4 10.4 -15.1 0-27.5-11.4-29.2-26.1H343.9zM299.5 125.9c8.6 0 16.8 3.8 22.4 10.4 1.8 2.1 3.3 4.5 4.4 7h-53.6C277.3 133 287.6 125.9 299.5 125.9z"/><circle class="st0" cx="170.7" cy="81.8" r="22.1"/><circle class="st0" cx="111.8" cy="89.1" r="14.7"/><circle class="st0" cx="229.7" cy="89.1" r="14.7"/><path class="st1" d="M237 121.1C237 121.1 237 121.1 237 121.1L237 121.1 237 121.1c-17.1-12.8-40.4-13.1-57.8-0.9 -1.4 0.8-5.1 3-8.5 3 -4.2 0-9.1-3.3-9.1-3.3v0c-17.3-11.9-40.3-11.5-57.2 1.2h0c-3.8 3.3-7.4 7.2-7.4 16.6v61.7h18.1v-49.2c0-31.1 46.5-26.2 46.5-8.3v57.5h18.1v-58.7c2-17 46.4-20.9 46.4 9.5l0.1-0.2v49.4h18.1v-61.7C244.4 128.2 240.9 124.4 237 121.1z"/></svg>
